<?xml version="1.0" encoding="UTF-8" standalone="no"?>
<svg
   xmlns:dc="http://purl.org/dc/elements/1.1/"
   xmlns:cc="http://creativecommons.org/ns#"
   xmlns:rdf="http://www.w3.org/1999/02/22-rdf-syntax-ns#"
   xmlns:svg="http://www.w3.org/2000/svg"
   xmlns="http://www.w3.org/2000/svg"
   xmlns:xlink="http://www.w3.org/1999/xlink"
   xmlns:sodipodi="http://sodipodi.sourceforge.net/DTD/sodipodi-0.dtd"
   xmlns:inkscape="http://www.inkscape.org/namespaces/inkscape"
   width="608"
   height="608"
   viewBox="-304 -304 608 608"
   version="1.1"
   id="svg4847"
   sodipodi:docname="icon.svg"
   inkscape:version="0.92.2 5c3e80d, 2017-08-06">
  <metadata
     id="metadata4853">
    <rdf:RDF>
      <cc:Work
         rdf:about="">
        <dc:format>image/svg+xml</dc:format>
        <dc:type
           rdf:resource="http://purl.org/dc/dcmitype/StillImage" />
      </cc:Work>
    </rdf:RDF>
  </metadata>
  <defs
     id="defs4851">
    <linearGradient
       id="linearGradient4970"
       inkscape:collect="always">
      <stop
         id="stop4966"
         offset="0"
         style="stop-color:#657b83;stop-opacity:1" />
      <stop
         id="stop4968"
         offset="1"
         style="stop-color:#fdf6e3;stop-opacity:1" />
    </linearGradient>
    <linearGradient
       inkscape:collect="always"
       id="linearGradient4859">
      <stop
         style="stop-color:#0d6177;stop-opacity:1"
         offset="0"
         id="stop4855" />
      <stop
         style="stop-color:#002b36;stop-opacity:1"
         offset="1"
         id="stop4857" />
    </linearGradient>
    <linearGradient
       inkscape:collect="always"
       xlink:href="#linearGradient4859"
       id="linearGradient4861"
       x1="-129.86842"
       y1="-308.66788"
       x2="227.01573"
       y2="285.88879"
       gradientUnits="userSpaceOnUse" />
    <linearGradient
       inkscape:collect="always"
       xlink:href="#linearGradient4970"
       id="linearGradient4964"
       x1="-45.231953"
       y1="331.95419"
       x2="-72.922119"
       y2="-72.922112"
       gradientUnits="userSpaceOnUse"
       gradientTransform="matrix(1.1559842,0,0,1.2755905,0.14772459,-4.6520885)" />
    <filter
       inkscape:collect="always"
       style="color-interpolation-filters:sRGB"
       id="filter5024"
       x="-0.024"
       width="1.048"
       y="-0.024"
       height="1.048">
      <feGaussianBlur
         inkscape:collect="always"
         stdDeviation="5.76"
         id="feGaussianBlur5026" />
    </filter>
    <filter
       inkscape:collect="always"
       style="color-interpolation-filters:sRGB"
       id="filter5036"
       x="-0.034775492"
       width="1.069551"
       y="-0.073499301"
       height="1.1469986">
      <feGaussianBlur
         inkscape:collect="always"
         stdDeviation="6.6416497"
         id="feGaussianBlur5038" />
    </filter>
  </defs>
  <sodipodi:namedview
     pagecolor="#ffffff"
     bordercolor="#666666"
     borderopacity="1"
     objecttolerance="10"
     gridtolerance="10"
     guidetolerance="10"
     inkscape:pageopacity="0"
     inkscape:pageshadow="2"
     inkscape:window-width="1279"
     inkscape:window-height="821"
     id="namedview4849"
     showgrid="false"
     inkscape:zoom="0.74664894"
     inkscape:cx="340.84287"
     inkscape:cy="289.87205"
     inkscape:window-x="0"
     inkscape:window-y="0"
     inkscape:window-maximized="0"
     inkscape:current-layer="svg4847" />
  <title
     id="title4843">Squircle: x to 4th plus y to 4th equals radius to 4th</title>
  <path
     style="fill:#000000;fill-opacity:1;stroke:#1a1a1a;stroke-width:4.03999996;filter:url(#filter5024)"
     id="path4982"
     d="m 4,296 c 126.2,0 196.3563,0 242.1782,-45.8218 C 292,204.3563 292,134.2 292,8 292,-118.2 292,-188.3563 246.1782,-234.1782 200.3563,-280 130.2,-280 4,-280 c -126.2,0 -196.3563,0 -242.1782,45.8218 C -284,-188.3563 -284,-118.2 -284,8 c 0,126.2 0,196.3563 45.8218,242.1782 C -192.3563,296 -122.2,296 4,296 Z"
     inkscape:connector-curvature="0" />
  <path
     d="M0,288 C126.2,288,196.3563,288,242.1782,242.1782 C288,196.3563,288,126.2,288,0 C288,-126.2,288,-196.3563,242.1782,-242.1782 C196.3563,-288,126.2,-288,0,-288 C-126.2,-288,-196.3563,-288,-242.1782,-242.1782 C-288,-196.3563,-288,-126.2,-288,0 C-288,126.2,-288,196.3563,-242.1782,242.1782 C-196.3563,288,-126.2,288,0,288Z"
     id="path4845"
     style="fill-opacity:1;fill:url(#linearGradient4861);stroke:none;stroke-width:7.55905512;stroke-miterlimit:4;stroke-dasharray:none;stroke-opacity:1"
     stroke-width="4.04"
     stroke="#000000"
     fill="none" />
  <path
     inkscape:connector-curvature="0"
     id="path4972"
     d="M 215.65,65.585017 228.23675,27.917725 153.76512,8.5133746 120.20045,-12.03242 50.973304,-119.32712 59.364469,-24.588188 -14.058255,-115.90282 0.62629451,-23.446756 -72.79644,-106.77135 l 24.124609,92.456065 -77.618309,-70.768844 28.320191,92.4560713 -93.351751,-62.7788163 48.24922,94.738935 -87.05838,-43.374454 49.29812,61.637383 10.48897,26.252957 26.2224,13.697188 h 296.8376 z"
     style="color:#000000;clip-rule:nonzero;display:inline;overflow:visible;visibility:visible;opacity:1;isolation:auto;mix-blend-mode:normal;color-interpolation:sRGB;color-interpolation-filters:linearRGB;solid-color:#000000;solid-opacity:1;fill:#010101;fill-opacity:1;fill-rule:evenodd;stroke:none;stroke-width:1.64701819;stroke-linecap:round;stroke-linejoin:round;stroke-miterlimit:4;stroke-dasharray:none;stroke-dashoffset:0;stroke-opacity:1;color-rendering:auto;image-rendering:auto;shape-rendering:auto;text-rendering:auto;enable-background:accumulate;filter:url(#filter5036)"
     transform="matrix(1.1559842,0,0,1.2755905,0.14772459,3.0014545)" />
  <path
     style="color:#000000;clip-rule:nonzero;display:inline;overflow:visible;visibility:visible;opacity:1;isolation:auto;mix-blend-mode:normal;color-interpolation:sRGB;color-interpolation-filters:linearRGB;solid-color:#000000;solid-opacity:1;fill:url(#linearGradient4964);fill-opacity:1;fill-rule:evenodd;stroke:none;stroke-width:2;stroke-linecap:round;stroke-linejoin:round;stroke-miterlimit:4;stroke-dasharray:none;stroke-dashoffset:0;stroke-opacity:1;color-rendering:auto;image-rendering:auto;shape-rendering:auto;text-rendering:auto;enable-background:accumulate"
     d="m 249.43572,79.007536 c 10.48371,-13.043284 14.55008,-48.04804 14.55008,-48.04804 0,0 -59.03562,-12.114699 -86.08803,-24.7520047 C 163.75718,-0.39816324 149.7694,-8.6118284 139.09755,-20.000529 102.96199,-58.563399 59.072059,-156.86463 59.072059,-156.86463 L 68.772113,-36.016548 -16.103396,-152.49662 0.87171115,-34.560548 -84.00381,-140.84861 -56.116143,-22.91253 -145.84168,-113.1846 -113.10399,4.7514911 -221.01714,-75.328571 -165.2418,45.519515 -265.87991,-9.8085266 c 0,0 37.12198,53.0691436 56.98784,78.6240606 13.56715,17.452415 42.43777,50.960026 42.43777,50.960026 h 343.13957 c 0,0 55.33538,-19.10111 72.75045,-40.768024 z"
     id="path4962"
     inkscape:connector-curvature="0"
     sodipodi:nodetypes="acaacccccccccccacca" />
</svg>
